<?xml version="1.0" encoding="UTF-8" standalone="no"?>
<!-- Generator: Adobe Illustrator 19.0.0, SVG Export Plug-In . SVG Version: 6.00 Build 0)  -->

<svg
   xmlns:dc="http://purl.org/dc/elements/1.1/"
   xmlns:cc="http://creativecommons.org/ns#"
   xmlns:rdf="http://www.w3.org/1999/02/22-rdf-syntax-ns#"
   xmlns:svg="http://www.w3.org/2000/svg"
   xmlns="http://www.w3.org/2000/svg"
   xmlns:sodipodi="http://sodipodi.sourceforge.net/DTD/sodipodi-0.dtd"
   xmlns:inkscape="http://www.inkscape.org/namespaces/inkscape"
   version="1.1"
   id="Layer_1"
   x="0px"
   y="0px"
   viewBox="0 0 303.2 73.6"
   style="enable-background:new 0 0 303.2 73.6;"
   xml:space="preserve"
   inkscape:version="0.91 r13725"
   sodipodi:docname="logo_green (copy).svg"><metadata
     id="metadata64"><rdf:RDF><cc:Work
         rdf:about=""><dc:format>image/svg+xml</dc:format><dc:type
           rdf:resource="http://purl.org/dc/dcmitype/StillImage" /><dc:title /></cc:Work></rdf:RDF></metadata><defs
     id="defs62" /><sodipodi:namedview
     pagecolor="#ffffff"
     bordercolor="#666666"
     borderopacity="1"
     objecttolerance="10"
     gridtolerance="10"
     guidetolerance="10"
     inkscape:pageopacity="0"
     inkscape:pageshadow="2"
     inkscape:window-width="1366"
     inkscape:window-height="744"
     id="namedview60"
     showgrid="false"
     inkscape:zoom="2.7799184"
     inkscape:cx="130.96493"
     inkscape:cy="59.201403"
     inkscape:window-x="0"
     inkscape:window-y="24"
     inkscape:window-maximized="1"
     inkscape:current-layer="g8114" /><style
     type="text/css"
     id="style3">
	.st0{fill:#0C385A;}
	.st1{fill:url(#SVGID_1_);}
	.st2{fill:url(#SVGID_2_);}
	.st3{fill:url(#SVGID_3_);}
</style><g
     id="g5"><g
       id="g8114"
       transform="matrix(0.86036036,0,0,0.86036036,11.626425,2.562768)"><circle
         r="39.92923"
         cy="35.713818"
         cx="29.008396"
         id="path8112"
         style="fill:#ffffff;fill-opacity:1" /><g
         transform="matrix(0.71051988,0,0,0.71051988,-14.942893,-12.970738)"
         id="g4172"><path
           style="fill:#1a522b"
           inkscape:connector-curvature="0"
           d="m 47.88,24.88 c 3.53,-4.68 11.09,-6.5 15.81,-2.58 3.98,3.9 3.33,11.1 -0.61,14.82 -3.53,3.58 -8.78,4.23 -13.49,5.09 1.84,3.76 4.21,7.26 5.67,11.2 -3.77,-3.02 -6.1,-7.41 -8.7,-11.39 -8.12,0.79 -16.11,-2.15 -22.47,-7.11 0.96,-1.34 1.93,-2.68 2.89,-4.02 5.66,3.78 11.54,8.11 18.64,8.26 -1.07,-4.78 -1.06,-10.33 2.26,-14.27 z"
           id="path6" /><path
           style="fill:#ffffff"
           inkscape:connector-curvature="0"
           d="m 55.31,23.33 c 3.83,-1.61 8.53,1.49 8.19,5.71 -0.1,7.13 -8.8,10.76 -14.84,9.64 -2.44,-5.75 0.23,-13.73 6.65,-15.35 z"
           id="path8" /><path
           style="fill:#1a522b"
           inkscape:connector-curvature="0"
           d="m 64.74,42.34 c 0.98,3.6 1.23,7.34 0.86,11.06 -2.84,-1.31 -5.98,-1.49 -9.05,-1.42 3.89,-1.99 7.23,-5.24 8.19,-9.64 z"
           id="path10" /><path
           style="fill:#bf1f2e"
           inkscape:connector-curvature="0"
           d="m 79.37,46.59 c 5.59,-1.28 11.93,1.17 14.78,6.24 3.69,6.56 1.27,16.27 -5.89,19.37 -6.91,3.41 -16.07,-0.29 -18.59,-7.58 -3.08,-7.34 1.78,-16.66 9.7,-18.03 z"
           id="path12" /><path
           style="fill:#1a522b"
           inkscape:connector-curvature="0"
           d="m 40.59,53 c 4.05,2.23 8.84,2.16 12.94,0.09 -2.07,2.34 -3.87,4.92 -5.15,7.79 C 45.35,58.71 42.73,56.04 40.59,53 Z"
           id="path14" /><path
           style="fill:#bf1f2e"
           inkscape:connector-curvature="0"
           d="m 56.36,54.6 c 5.06,-2.4 11.7,1.66 11.43,7.38 0.47,5.9 -6.26,10.2 -11.5,7.7 -6.26,-2.42 -6.07,-12.6 0.07,-15.08 z"
           id="path16" /><path
           style="fill:#bf1f2e"
           inkscape:connector-curvature="0"
           d="M 39.4,65.6 C 46.52,63.1 54.91,68.54 55.42,76.08 56.44,83.2 50.16,90.05 43,89.74 36.3,89.86 30.37,83.72 30.81,77.01 c 0.07,-5.13 3.7,-9.9 8.59,-11.41 z"
           id="path18" /><path
           style="fill:#bf1f2e"
           inkscape:connector-curvature="0"
           d="m 63.19,70.27 c 3.49,-1.17 7.68,1.91 7.1,5.7 0.33,4.11 -4.72,6.83 -8.16,4.88 -4.43,-1.94 -3.68,-9.57 1.06,-10.58 z"
           id="path20" /><path
           style="fill:#bf1f2e"
           inkscape:connector-curvature="0"
           d="m 90.32,73.32 c 6.91,-3.45 15.74,3.02 14.4,10.66 -0.42,7.84 -10.73,11.87 -16.62,6.96 -6.04,-4.37 -4.77,-14.93 2.22,-17.62 z"
           id="path22" /><path
           style="fill:#bf1f2e"
           inkscape:connector-curvature="0"
           d="m 74.34,74.42 c 4.25,-2.03 9.6,1.87 8.64,6.58 -0.26,4.79 -6.64,7.05 -10.13,4.02 -3.34,-2.75 -2.63,-8.99 1.49,-10.6 z"
           id="path24" /><path
           style="fill:#bf1f2e"
           inkscape:connector-curvature="0"
           d="m 58.37,82.54 c 2.29,-1.45 5.79,-0.01 6.25,2.7 0.91,3.08 -2.44,6.29 -5.49,5.06 -3.32,-1.01 -3.62,-6.04 -0.76,-7.76 z"
           id="path26" /><path
           style="fill:#bf1f2e"
           inkscape:connector-curvature="0"
           d="m 68.43,87.63 c 7.26,-2.75 15,5.07 12.32,12.29 -1.65,7.07 -11.81,9.21 -16.43,3.81 -4.65,-4.89 -2.51,-14.23 4.11,-16.1 z"
           id="path28" /><path
           style="fill:#bf1f2e"
           inkscape:connector-curvature="0"
           d="m 49.21,89.12 c 5.1,-2.61 11.58,2.38 10.47,7.96 -0.5,5.16 -6.9,8.27 -11.27,5.46 -4.99,-2.77 -4.52,-11.29 0.8,-13.42 z"
           id="path30" /><path
           style="fill:#bf1f2e"
           inkscape:connector-curvature="0"
           d="m 88.32,94.4 c 5.43,-2.22 11.88,2.74 10.93,8.59 -0.21,5.88 -7.59,9.33 -12.41,6.19 -5.53,-3.19 -4.62,-12.79 1.48,-14.78 z"
           id="path32-3" /><path
           style="fill:#bf1f2e"
           inkscape:connector-curvature="0"
           d="m 58.23,103.21 c 2.79,-0.78 5.7,1.96 5,4.8 -0.31,3.42 -5.29,4.76 -7.31,2 -1.96,-2.25 -0.66,-6.32 2.31,-6.8 z"
           id="path34" /><path
           style="fill:#bf1f2e"
           inkscape:connector-curvature="0"
           d="m 78.31,106.33 c 3.39,-1.11 7.01,2.14 6,5.61 -0.48,3.55 -5.31,4.75 -7.79,2.48 -2.37,-2.36 -1.51,-7.04 1.79,-8.09 z"
           id="path36" /><path
           style="fill:#bf1f2e"
           inkscape:connector-curvature="0"
           d="m 66.22,108.39 c 4.01,-1.86 8.82,2.35 7.65,6.56 -0.62,3.71 -5.29,5.79 -8.45,3.78 -3.96,-2.1 -3.48,-8.9 0.8,-10.34 z"
           id="path38" /></g></g><text
       xml:space="preserve"
       style="font-style:normal;font-variant:normal;font-weight:bold;font-stretch:normal;font-size:53.75px;line-height:125%;font-family:sans-serif;-inkscape-font-specification:'sans-serif Bold';letter-spacing:0px;word-spacing:0px;fill:#ffffff;fill-opacity:1;stroke:none;stroke-width:1px;stroke-linecap:butt;stroke-linejoin:miter;stroke-opacity:1;"
       x="59.398781"
       y="62.4245"
       id="text4232"
       sodipodi:linespacing="125%"><tspan
         sodipodi:role="line"
         id="tspan4234"
         x="59.398781"
         y="62.4245"
         style="font-style:normal;font-variant:normal;font-weight:bold;font-stretch:normal;font-size:55px;font-family:Purisa;-inkscape-font-specification:'Purisa Bold';fill:#ffffff;fill-opacity:1;">Thizwell</tspan></text>
</g></svg>